<svg width="14" height="14" viewBox="0 0 14 14" fill="none" xmlns="http://www.w3.org/2000/svg">
<path d="M0.151855 7.00684C0.151855 7.21159 0.223796 7.3859 0.367676 7.52979C0.51709 7.67367 0.691406 7.74561 0.890625 7.74561H6.26123V13.1162C6.26123 13.3154 6.33317 13.487 6.47705 13.6309C6.62093 13.7803 6.79525 13.855 7 13.855C7.20475 13.855 7.37907 13.7803 7.52295 13.6309C7.67236 13.487 7.74707 13.3154 7.74707 13.1162V7.74561H13.1094C13.3086 7.74561 13.4801 7.67367 13.624 7.52979C13.7734 7.3859 13.8481 7.21159 13.8481 7.00684C13.8481 6.80208 13.7734 6.62777 13.624 6.48389C13.4801 6.33447 13.3086 6.25977 13.1094 6.25977H7.74707V0.897461C7.74707 0.698242 7.67236 0.526693 7.52295 0.382812C7.37907 0.233398 7.20475 0.158691 7 0.158691C6.79525 0.158691 6.62093 0.233398 6.47705 0.382812C6.33317 0.526693 6.26123 0.698242 6.26123 0.897461V6.25977H0.890625C0.691406 6.25977 0.51709 6.33447 0.367676 6.48389C0.223796 6.62777 0.151855 6.80208 0.151855 7.00684Z" fill="black"/>
</svg>
